<svg xmlns="http://www.w3.org/2000/svg" viewBox="0 0 80.21 128.335"><defs><style>.b{fill:#102e46}</style></defs><path d="M0 0v128.335l40.1-40.1 40.1 40.1V0z" fill="#060e15"/><path class="b" d="M29.511 48.793a30.757 30.757 0 0 1-4.1 0 4.431 4.431 0 0 1-3.459-2.731 15.574 15.574 0 0 1-1.36-5.734 18.472 18.472 0 0 1 .637-5.917 6.087 6.087 0 0 1 6.19-4.551h12.473v-1.184h-9.289c.089-1.912.089-3.823.364-5.644a2.944 2.944 0 0 1 2.276-2.189 32.616 32.616 0 0 1 4.1-.819 24.593 24.593 0 0 1 7.737.364 5.073 5.073 0 0 1 4.275 5.375v7.92a4.921 4.921 0 0 1-5.189 5.189c-2.822-.091-5.644 0-8.466 0a5.973 5.973 0 0 0-6.281 6.281c.092 1.182.092 2.366.092 3.64zm5.281-26.034a1.73 1.73 0 1 0 0 3.459 1.79 1.79 0 0 0 1.73-1.73 1.674 1.674 0 0 0-1.73-1.73z"/><path class="b" d="M50.629 30.041a30.756 30.756 0 0 1 4.1 0 4.431 4.431 0 0 1 3.459 2.731 15.574 15.574 0 0 1 1.365 5.735 18.472 18.472 0 0 1-.637 5.917 5.85 5.85 0 0 1-6.1 4.551H40.343v1.092h9.376a39.528 39.528 0 0 1-.455 5.735 2.944 2.944 0 0 1-2.276 2.185 32.616 32.616 0 0 1-4.1.819 24.593 24.593 0 0 1-7.737-.364 5.073 5.073 0 0 1-4.275-5.371v-7.923a4.921 4.921 0 0 1 5.189-5.189c2.822.091 5.644 0 8.466 0a5.973 5.973 0 0 0 6.281-6.281 23.212 23.212 0 0 1-.183-3.637zm-5.28 26.034a1.73 1.73 0 1 0-1.73-1.73 1.672 1.672 0 0 0 1.73 1.73z"/></svg>